<!-- Exported by Character Map UWP -->
<svg height="100%" viewBox="0 0 1024 1024" width="100%" xmlns="http://www.w3.org/2000/svg" xmlns:xlink="http://www.w3.org/1999/xlink">
  <path d="M512,960C563.333,960 612.583,952.083 659.75,936.25C706.917,920.417 749.917,898.083 788.75,869.25C827.583,840.417 861.417,805.75 890.25,765.25C919.083,724.75 941,679.833 956,630.5L1017,649.5C1000.33,705.167 975.5,755.917 942.5,801.75C909.5,847.583 870.75,887 826.25,920C781.75,953 732.75,978.583 679.25,996.75C625.75,1014.92 570,1024 512,1024C466.333,1024 421.833,1018.33 378.5,1007C335.167,995.667 294.25,979.25 255.75,957.75C217.25,936.25 181.667,910.083 149,879.25C116.333,848.417 88,813.5 64,774.5L64,896L0,896L0,640L256,640L256,704L98,704C117.667,743 142.083,778.25 171.25,809.75C200.417,841.25 233,868.083 269,890.25C305,912.417 343.583,929.583 384.75,941.75C425.917,953.917 468.333,960 512,960ZM1024,128L1024,384L768,384L768,320L926,320C906.333,281 881.917,245.75 852.75,214.25C823.583,182.75 791,155.917 755,133.75C719,111.583 680.417,94.4167 639.25,82.25C598.083,70.0834 555.667,64.0001 512,64C460.667,64.0001 411.417,71.9167 364.25,87.75C317.083,103.583 274.083,125.917 235.25,154.75C196.417,183.583 162.583,218.25 133.75,258.75C104.917,299.25 83,344.167 68,393.5L7,374.5C23.6667,319.167 48.5,268.5 81.5,222.5C114.5,176.5 153.25,137 197.75,104C242.25,71 291.25,45.4167 344.75,27.25C398.25,9.08337 454,0 512,0C557.667,0 602.167,5.66669 645.5,17C688.833,28.3334 729.75,44.7501 768.25,66.25C806.75,87.7501 842.333,113.917 875,144.75C907.667,175.583 936,210.5 960,249.5L960,128Z" fill="#000000" fill-opacity="1">
  </path>
</svg>